<svg width="704" height="219" viewBox="0 0 704 219" fill="none" xmlns="http://www.w3.org/2000/svg">
<g clip-path="url(#clip0_306_95)">
<path d="M115.611 179.811H107.954V218.616H115.611V179.811Z" fill="#F15B2A"/>
<path d="M137.661 179.426H141.03L161.931 202.709V179.811H169.511V219H166.142L145.317 195.794V218.616H137.661V179.426Z" fill="#F15B2A"/>
<path d="M200.06 187.572V195.333H212.54V203.094H200.06V218.616H192.327V179.811H217.21V187.572H200.06Z" fill="#F15B2A"/>
<path d="M268.661 218.616H259.244L248.754 203.785H244.084V218.616H236.428V179.811H252.047C253.654 179.811 255.186 180.118 256.64 180.733C258.095 181.347 259.32 182.193 260.392 183.345C261.464 184.421 262.383 185.727 262.995 187.111C263.608 188.571 263.991 190.107 263.991 191.798C263.991 194.257 263.378 196.408 262.153 198.329C260.928 200.251 259.244 201.711 257.253 202.633L268.661 218.616ZM250.745 196.178C252.736 196.178 254.114 195.717 255.033 194.872C255.951 194.026 256.411 192.951 256.411 191.798C256.411 190.645 255.951 189.569 255.033 188.801C254.114 187.956 252.659 187.572 250.745 187.572H244.161V196.178H250.745Z" fill="#F15B2A"/>
<path d="M303.114 179.426L320.494 218.616H312.072L308.933 211.546H294.156C293.697 212.622 293.161 213.852 292.548 215.081C292.013 216.387 291.477 217.54 291.017 218.616H282.595L299.745 179.426H303.038H303.114ZM305.488 203.862L301.506 194.872L297.525 203.862H305.488Z" fill="#F15B2A"/>
<path d="M390.09 190.492C390.09 191.721 389.784 193.104 389.248 194.564C388.712 196.024 387.64 197.33 386.032 198.406C387.028 198.867 387.793 199.405 388.482 200.097C389.172 200.788 389.707 201.48 390.167 202.248C390.626 203.017 390.932 203.785 391.162 204.63C391.392 205.476 391.468 206.244 391.468 207.013C391.468 208.473 391.239 209.856 390.856 211.239C390.397 212.622 389.707 213.852 388.712 215.004C387.717 216.08 386.339 217.002 384.731 217.694C383.046 218.385 380.979 218.693 378.453 218.693H362.834V179.887H378.3C379.984 179.887 381.515 180.195 382.97 180.809C384.425 181.424 385.65 182.193 386.721 183.192C387.793 184.19 388.636 185.266 389.248 186.573C389.861 187.879 390.167 189.185 390.167 190.568M370.49 194.948H377.457C378.835 194.948 379.907 194.641 380.75 193.949C381.592 193.335 381.975 192.413 381.975 191.337C381.975 190.261 381.592 189.339 380.75 188.57C379.907 187.802 378.835 187.418 377.457 187.418H370.49V194.872V194.948ZM377.534 210.932C379.601 210.932 381.132 210.547 382.051 209.702C382.97 208.934 383.429 208.012 383.429 206.936C383.429 206.398 383.353 205.86 383.123 205.322C382.893 204.784 382.587 204.323 382.204 203.939C381.745 203.555 381.132 203.247 380.367 203.017C379.601 202.786 378.606 202.633 377.457 202.633H370.414V210.932H377.457H377.534Z" fill="#F15B2A"/>
<path d="M426.075 219C423.855 219 421.864 218.616 420.027 217.847C418.189 217.079 416.581 216.08 415.28 214.697C413.978 213.391 412.983 211.777 412.217 209.933C411.452 208.088 411.145 206.014 411.145 203.862V179.811H418.802V202.863C418.802 204.169 419.031 205.322 419.414 206.398C419.797 207.474 420.333 208.319 421.022 209.087C421.711 209.779 422.477 210.394 423.395 210.778C424.238 211.162 425.233 211.393 426.152 211.393C427.07 211.393 428.066 211.162 428.908 210.778C429.827 210.394 430.592 209.856 431.281 209.087C431.971 208.396 432.506 207.474 432.889 206.398C433.272 205.322 433.502 204.169 433.502 202.863V179.811H441.158V203.862C441.158 206.091 440.775 208.088 440.086 209.933C439.321 211.777 438.325 213.391 437.024 214.697C435.722 216.003 434.114 217.079 432.277 217.847C430.439 218.616 428.449 219 426.228 219" fill="#F15B2A"/>
<path d="M470.712 179.811H463.055V218.616H470.712V179.811Z" fill="#F15B2A"/>
<path d="M515.96 218.616H492.685V179.811H500.341V210.932H515.96V218.616Z" fill="#F15B2A"/>
<path d="M535.484 218.616V179.811H548.883C551.792 179.811 554.319 180.272 556.616 181.194C558.912 182.116 560.903 183.499 562.511 185.189C564.119 186.88 565.42 188.955 566.263 191.337C567.181 193.719 567.564 196.332 567.564 199.252C567.564 202.172 567.105 204.554 566.263 206.859C565.42 209.241 564.119 211.239 562.511 213.006C560.903 214.774 558.912 216.08 556.616 217.079C554.319 218.078 551.716 218.539 548.883 218.539H535.484V218.616ZM543.064 210.932H548.883C550.491 210.932 551.945 210.624 553.247 210.009C554.625 209.395 555.773 208.626 556.769 207.551C557.764 206.475 558.53 205.245 559.066 203.862C559.602 202.402 559.908 200.942 559.908 199.252C559.908 197.561 559.602 196.101 559.066 194.718C558.53 193.258 557.764 192.028 556.769 191.03C555.773 189.954 554.625 189.185 553.247 188.571C551.869 187.956 550.414 187.648 548.883 187.648H543.064V211.008V210.932Z" fill="#F15B2A"/>
<path d="M169.664 0L251.511 75.6126V0H277.236V132.322L195.39 58.2463V132.322H169.664V0Z" fill="#F15B2A"/>
<path d="M544.136 0L495.288 69.081V132.322H469.41V69.081C465.658 63.8558 424.467 5.22526 420.716 0H452.566L482.426 42.8779L512.056 0L544.136 0Z" fill="#F15B2A"/>
<path d="M76.1805 0L0 132.322H28.1753L76.1805 48.6411L124.415 132.322H152.285L76.1805 0Z" fill="#F15B2A"/>
<path d="M599.414 0L523.234 132.322H551.409L599.414 48.6411L647.649 132.322H675.595L599.414 0Z" fill="#F15B2A"/>
<path fill-rule="evenodd" clip-rule="evenodd" d="M360.154 107.579H337.185L371.179 48.6411L405.173 107.579H382.204V132.322H447.36L371.179 0L294.999 132.322H360.154V107.579Z" fill="#F15B2A"/>
</g>
<defs>
<clipPath id="clip0_306_95">
<rect width="704" height="219" fill="#F15B2A"/>
</clipPath>
</defs>
</svg>
